# xmcd
#
# Track frame offsets:
#	150
#	21136
#	35313
#	49474
#	67802
#	84012
#	99001
#	114712
#	124585
#	138291
#
# Disc length: 2044 seconds
#
# Revision: 0
# Processed by: cddbd v1.5.1PL0 Copyright (c) Steve Scherf et al.
# Submitted via: dBpowerAMP V4.0
#
DISCID=7207fa0a
DTITLE=Howling Diablos - Car Wash
DYEAR=1900
DGENRE=blues
TTITLE0=Car Wash
TTITLE1=Gone So Long
TTITLE2=Broke Down
TTITLE3=Prison Train
TTITLE4=Dope Man
TTITLE5=Mean Little Town
TTITLE6=Easy Street
TTITLE7=Stop Runnin' Your Mouth
TTITLE8=A Woman (Like Mine)
TTITLE9=Elvis Lives
EXTD=
EXTT0=
EXTT1=
EXTT2=
EXTT3=
EXTT4=
EXTT5=
EXTT6=
EXTT7=
EXTT8=
EXTT9=
PLAYORDER=
